{
    "asset" : {
        "generator" : "Khronos glTF Blender I/O v1.8.19",
        "version" : "2.0"
    },
    "scene" : 0,
    "scenes" : [
        {
            "name" : "Scene",
            "nodes" : [
                1,
                3,
                4,
                5,
                6,
                7,
                8,
                9
            ]
        }
    ],
    "nodes" : [
        {
            "mesh" : 0,
            "name" : "StickL"
        },
        {
            "children" : [
                0
            ],
            "mesh" : 1,
            "name" : "GimbalL",
            "scale" : [
                0.10000000149011612,
                0.10000000149011612,
                0.10000000149011612
            ]
        },
        {
            "mesh" : 2,
            "name" : "StickR",
            "translation" : [
                3.814697265625e-06,
                0,
                0
            ]
        },
        {
            "children" : [
                2
            ],
            "mesh" : 3,
            "name" : "GimbalR",
            "scale" : [
                0.10000000149011612,
                0.10000000149011612,
                0.10000000149011612
            ],
            "translation" : [
                5,
                0,
                0
            ]
        },
        {
            "mesh" : 4,
            "name" : "GimbalCoverL",
            "scale" : [
                0.10000000149011612,
                0.10000000149011612,
                0.10000000149011612
            ]
        },
        {
            "mesh" : 5,
            "name" : "GimbalCoverR",
            "scale" : [
                0.10000000149011612,
                0.10000000149011612,
                0.10000000149011612
            ],
            "translation" : [
                5,
                0,
                0
            ]
        },
        {
            "mesh" : 6,
            "name" : "TrailL"
        },
        {
            "mesh" : 7,
            "name" : "TrailR",
            "translation" : [
                5,
                0,
                0
            ]
        },
        {
            "mesh" : 8,
            "name" : "Plane.001",
            "scale" : [
                1.600000023841858,
                1,
                1
            ],
            "translation" : [
                5,
                0,
                0
            ]
        },
        {
            "mesh" : 9,
            "name" : "Plane",
            "scale" : [
                1.600000023841858,
                1,
                1
            ]
        }
    ],
    "materials" : [
        {
            "doubleSided" : true,
            "name" : "Material.002",
            "pbrMetallicRoughness" : {
                "metallicFactor" : 0.6318181753158569,
                "roughnessFactor" : 0.4363636076450348
            }
        },
        {
            "doubleSided" : true,
            "name" : "Material.011",
            "pbrMetallicRoughness" : {
                "metallicFactor" : 0
            }
        },
        {
            "doubleSided" : true,
            "name" : "Material.001",
            "pbrMetallicRoughness" : {
                "metallicFactor" : 0
            }
        },
        {
            "doubleSided" : true,
            "name" : "Material.003",
            "pbrMetallicRoughness" : {}
        },
        {
            "doubleSided" : true,
            "name" : "Material",
            "pbrMetallicRoughness" : {
                "baseColorFactor" : [
                    0,
                    0,
                    0,
                    1
                ],
                "metallicFactor" : 0,
                "roughnessFactor" : 0.5
            }
        }
    ],
    "meshes" : [
        {
            "name" : "Stick",
            "primitives" : [
                {
                    "attributes" : {
                        "POSITION" : 0,
                        "NORMAL" : 1
                    },
                    "indices" : 2,
                    "material" : 0
                }
            ]
        },
        {
            "name" : "Gimbal",
            "primitives" : [
                {
                    "attributes" : {
                        "POSITION" : 3,
                        "NORMAL" : 4
                    },
                    "indices" : 5,
                    "material" : 1
                }
            ]
        },
        {
            "name" : "Stick.004",
            "primitives" : [
                {
                    "attributes" : {
                        "POSITION" : 6,
                        "NORMAL" : 7
                    },
                    "indices" : 8,
                    "material" : 0
                }
            ]
        },
        {
            "name" : "Gimbal.004",
            "primitives" : [
                {
                    "attributes" : {
                        "POSITION" : 9,
                        "NORMAL" : 10
                    },
                    "indices" : 5,
                    "material" : 1
                }
            ]
        },
        {
            "name" : "GimbalCover",
            "primitives" : [
                {
                    "attributes" : {
                        "POSITION" : 11,
                        "NORMAL" : 12
                    },
                    "indices" : 13,
                    "material" : 2
                }
            ]
        },
        {
            "name" : "GimbalCover.004",
            "primitives" : [
                {
                    "attributes" : {
                        "POSITION" : 14,
                        "NORMAL" : 15
                    },
                    "indices" : 13,
                    "material" : 2
                }
            ]
        },
        {
            "name" : "Icosphere",
            "primitives" : [
                {
                    "attributes" : {
                        "POSITION" : 16,
                        "NORMAL" : 17,
                        "TEXCOORD_0" : 18
                    },
                    "indices" : 19,
                    "material" : 3
                }
            ]
        },
        {
            "name" : "Icosphere.001",
            "primitives" : [
                {
                    "attributes" : {
                        "POSITION" : 20,
                        "NORMAL" : 21,
                        "TEXCOORD_0" : 22
                    },
                    "indices" : 19,
                    "material" : 3
                }
            ]
        },
        {
            "name" : "Plane.001",
            "primitives" : [
                {
                    "attributes" : {
                        "POSITION" : 23,
                        "NORMAL" : 24,
                        "TEXCOORD_0" : 25
                    },
                    "indices" : 26,
                    "material" : 4
                }
            ]
        },
        {
            "name" : "Plane",
            "primitives" : [
                {
                    "attributes" : {
                        "POSITION" : 27,
                        "NORMAL" : 28,
                        "TEXCOORD_0" : 29
                    },
                    "indices" : 26,
                    "material" : 4
                }
            ]
        }
    ],
    "accessors" : [
        {
            "bufferView" : 0,
            "componentType" : 5126,
            "count" : 2339,
            "max" : [
                13.94504165649414,
                43.48136520385742,
                4.047505855560303
            ],
            "min" : [
                -14.043127059936523,
                -14.10049819946289,
                -4.010159969329834
            ],
            "type" : "VEC3"
        },
        {
            "bufferView" : 1,
            "componentType" : 5126,
            "count" : 2339,
            "type" : "VEC3"
        },
        {
            "bufferView" : 2,
            "componentType" : 5123,
            "count" : 6852,
            "type" : "SCALAR"
        },
        {
            "bufferView" : 3,
            "componentType" : 5126,
            "count" : 1567,
            "max" : [
                18.062570571899414,
                15.086860656738281,
                17.52570343017578
            ],
            "min" : [
                -17.937429428100586,
                -17.413131713867188,
                -17.459060668945312
            ],
            "type" : "VEC3"
        },
        {
            "bufferView" : 4,
            "componentType" : 5126,
            "count" : 1567,
            "type" : "VEC3"
        },
        {
            "bufferView" : 5,
            "componentType" : 5123,
            "count" : 1752,
            "type" : "SCALAR"
        },
        {
            "bufferView" : 6,
            "componentType" : 5126,
            "count" : 2339,
            "max" : [
                14.09866714477539,
                43.48656463623047,
                4.149731636047363
            ],
            "min" : [
                -13.89236831665039,
                -14.10965347290039,
                -4.032171726226807
            ],
            "type" : "VEC3"
        },
        {
            "bufferView" : 7,
            "componentType" : 5126,
            "count" : 2339,
            "type" : "VEC3"
        },
        {
            "bufferView" : 8,
            "componentType" : 5123,
            "count" : 6852,
            "type" : "SCALAR"
        },
        {
            "bufferView" : 9,
            "componentType" : 5126,
            "count" : 1567,
            "max" : [
                18.062570571899414,
                15.086860656738281,
                17.52570343017578
            ],
            "min" : [
                -17.937429428100586,
                -17.413131713867188,
                -17.459060668945312
            ],
            "type" : "VEC3"
        },
        {
            "bufferView" : 10,
            "componentType" : 5126,
            "count" : 1567,
            "type" : "VEC3"
        },
        {
            "bufferView" : 11,
            "componentType" : 5126,
            "count" : 1574,
            "max" : [
                24.942733764648438,
                14.683759689331055,
                24.92497444152832
            ],
            "min" : [
                -25.031572341918945,
                -19.31624412536621,
                -25.075027465820312
            ],
            "type" : "VEC3"
        },
        {
            "bufferView" : 12,
            "componentType" : 5126,
            "count" : 1574,
            "type" : "VEC3"
        },
        {
            "bufferView" : 13,
            "componentType" : 5123,
            "count" : 1788,
            "type" : "SCALAR"
        },
        {
            "bufferView" : 14,
            "componentType" : 5126,
            "count" : 1574,
            "max" : [
                24.942733764648438,
                14.683759689331055,
                24.92497444152832
            ],
            "min" : [
                -25.031572341918945,
                -19.31624412536621,
                -25.075027465820312
            ],
            "type" : "VEC3"
        },
        {
            "bufferView" : 15,
            "componentType" : 5126,
            "count" : 1574,
            "type" : "VEC3"
        },
        {
            "bufferView" : 16,
            "componentType" : 5126,
            "count" : 42075,
            "max" : [
                0.7680782079696655,
                1,
                0.7711998224258423
            ],
            "min" : [
                -0.764089047908783,
                0.6363565921783447,
                -0.7711997628211975
            ],
            "type" : "VEC3"
        },
        {
            "bufferView" : 17,
            "componentType" : 5126,
            "count" : 42075,
            "type" : "VEC3"
        },
        {
            "bufferView" : 18,
            "componentType" : 5126,
            "count" : 42075,
            "type" : "VEC2"
        },
        {
            "bufferView" : 19,
            "componentType" : 5123,
            "count" : 42075,
            "type" : "SCALAR"
        },
        {
            "bufferView" : 20,
            "componentType" : 5126,
            "count" : 42075,
            "max" : [
                0.7680782079696655,
                1,
                0.7711998224258423
            ],
            "min" : [
                -0.764089047908783,
                0.6363565921783447,
                -0.7711997628211975
            ],
            "type" : "VEC3"
        },
        {
            "bufferView" : 21,
            "componentType" : 5126,
            "count" : 42075,
            "type" : "VEC3"
        },
        {
            "bufferView" : 22,
            "componentType" : 5126,
            "count" : 42075,
            "type" : "VEC2"
        },
        {
            "bufferView" : 23,
            "componentType" : 5126,
            "count" : 4,
            "max" : [
                1,
                0,
                1
            ],
            "min" : [
                -1,
                0,
                -1
            ],
            "type" : "VEC3"
        },
        {
            "bufferView" : 24,
            "componentType" : 5126,
            "count" : 4,
            "type" : "VEC3"
        },
        {
            "bufferView" : 25,
            "componentType" : 5126,
            "count" : 4,
            "type" : "VEC2"
        },
        {
            "bufferView" : 26,
            "componentType" : 5123,
            "count" : 6,
            "type" : "SCALAR"
        },
        {
            "bufferView" : 27,
            "componentType" : 5126,
            "count" : 4,
            "max" : [
                1,
                0,
                1
            ],
            "min" : [
                -1,
                0,
                -1
            ],
            "type" : "VEC3"
        },
        {
            "bufferView" : 28,
            "componentType" : 5126,
            "count" : 4,
            "type" : "VEC3"
        },
        {
            "bufferView" : 29,
            "componentType" : 5126,
            "count" : 4,
            "type" : "VEC2"
        }
    ],
    "bufferViews" : [
        {
            "buffer" : 0,
            "byteLength" : 28068,
            "byteOffset" : 0
        },
        {
            "buffer" : 0,
            "byteLength" : 28068,
            "byteOffset" : 28068
        },
        {
            "buffer" : 0,
            "byteLength" : 13704,
            "byteOffset" : 56136
        },
        {
            "buffer" : 0,
            "byteLength" : 18804,
            "byteOffset" : 69840
        },
        {
            "buffer" : 0,
            "byteLength" : 18804,
            "byteOffset" : 88644
        },
        {
            "buffer" : 0,
            "byteLength" : 3504,
            "byteOffset" : 107448
        },
        {
            "buffer" : 0,
            "byteLength" : 28068,
            "byteOffset" : 110952
        },
        {
            "buffer" : 0,
            "byteLength" : 28068,
            "byteOffset" : 139020
        },
        {
            "buffer" : 0,
            "byteLength" : 13704,
            "byteOffset" : 167088
        },
        {
            "buffer" : 0,
            "byteLength" : 18804,
            "byteOffset" : 180792
        },
        {
            "buffer" : 0,
            "byteLength" : 18804,
            "byteOffset" : 199596
        },
        {
            "buffer" : 0,
            "byteLength" : 18888,
            "byteOffset" : 218400
        },
        {
            "buffer" : 0,
            "byteLength" : 18888,
            "byteOffset" : 237288
        },
        {
            "buffer" : 0,
            "byteLength" : 3576,
            "byteOffset" : 256176
        },
        {
            "buffer" : 0,
            "byteLength" : 18888,
            "byteOffset" : 259752
        },
        {
            "buffer" : 0,
            "byteLength" : 18888,
            "byteOffset" : 278640
        },
        {
            "buffer" : 0,
            "byteLength" : 504900,
            "byteOffset" : 297528
        },
        {
            "buffer" : 0,
            "byteLength" : 504900,
            "byteOffset" : 802428
        },
        {
            "buffer" : 0,
            "byteLength" : 336600,
            "byteOffset" : 1307328
        },
        {
            "buffer" : 0,
            "byteLength" : 84150,
            "byteOffset" : 1643928
        },
        {
            "buffer" : 0,
            "byteLength" : 504900,
            "byteOffset" : 1728080
        },
        {
            "buffer" : 0,
            "byteLength" : 504900,
            "byteOffset" : 2232980
        },
        {
            "buffer" : 0,
            "byteLength" : 336600,
            "byteOffset" : 2737880
        },
        {
            "buffer" : 0,
            "byteLength" : 48,
            "byteOffset" : 3074480
        },
        {
            "buffer" : 0,
            "byteLength" : 48,
            "byteOffset" : 3074528
        },
        {
            "buffer" : 0,
            "byteLength" : 32,
            "byteOffset" : 3074576
        },
        {
            "buffer" : 0,
            "byteLength" : 12,
            "byteOffset" : 3074608
        },
        {
            "buffer" : 0,
            "byteLength" : 48,
            "byteOffset" : 3074620
        },
        {
            "buffer" : 0,
            "byteLength" : 48,
            "byteOffset" : 3074668
        },
        {
            "buffer" : 0,
            "byteLength" : 32,
            "byteOffset" : 3074716
        }
    ],
    "buffers" : [
        {
            "byteLength" : 3074748,
            "uri" : "data:application/octet-stream;base64,"
        }
    ]
}
